<svg width="1044" height="615" viewBox="0 0 1044 615" fill="none" xmlns="http://www.w3.org/2000/svg">
<g clip-path="url(#clip0_2967_10742)">
<path d="M1405.39 321.772H-59.5935V378.567H1405.39V321.772Z" fill="#98C6CF"/>
<path d="M1405.39 321.772H-59.5935V334.56H1405.39V321.772Z" fill="#1F8297"/>
<path d="M1405.49 377.987H-59.5801V615.479H1405.49V377.987Z" fill="#69ABB9"/>
<path d="M864.992 607.367C864.992 611.839 805.416 615.46 731.927 615.46C658.439 615.46 598.863 611.833 598.863 607.367C598.863 602.895 658.439 599.268 731.927 599.268C805.416 599.268 864.992 602.895 864.992 607.367Z" fill="#29D463"/>
<path d="M705.382 530.241C705.382 537.902 637.882 544.108 554.619 544.108C471.355 544.108 403.856 537.896 403.856 530.241C403.856 522.58 471.355 516.374 554.619 516.374C637.882 516.374 705.382 522.586 705.382 530.241Z" fill="#29D463"/>
<path d="M155.119 607.897C237.878 607.897 304.967 593.619 304.967 576.006C304.967 558.392 237.878 544.114 155.119 544.114C72.3595 544.114 5.27002 558.392 5.27002 576.006C5.27002 593.619 72.3595 607.897 155.119 607.897Z" fill="#29D463"/>
<path d="M1226.84 568.146C1226.84 575.296 1165.99 581.088 1090.93 581.088C1015.87 581.088 955.025 575.296 955.025 568.146C955.025 560.997 1015.87 555.205 1090.93 555.205C1165.99 555.205 1226.84 560.997 1226.84 568.146Z" fill="#29D463"/>
<path d="M879.948 586.29C879.948 591.588 820.372 595.882 746.883 595.882C673.395 595.882 613.819 591.588 613.819 586.29C613.819 580.991 673.395 576.697 746.883 576.697C820.372 576.697 879.948 580.991 879.948 586.29Z" fill="#29D463"/>
<path d="M997.333 413.167C1158.58 413.167 1289.29 408.864 1289.29 403.556C1289.29 398.249 1158.58 393.946 997.333 393.946C836.09 393.946 705.377 398.249 705.377 403.556C705.377 408.864 836.09 413.167 997.333 413.167Z" fill="#29D463"/>
<path d="M-59.5332 428.114C-59.5332 428.114 393.23 434.634 472.701 416.955C472.701 416.955 712.09 414.561 644.948 378.568H-59.5801L-59.5332 428.114Z" fill="#29D463"/>
<path d="M1405.33 461.832H-59.5933V499.738H1405.33V461.832Z" fill="#FEEBBC"/>
<path d="M787.623 388.962H558.274V444.948H787.623V388.962Z" fill="url(#paint0_linear_2967_10742)"/>
<path d="M787.624 402.009H558.274V405.797H787.624V402.009Z" fill="#EFEFF1"/>
<path d="M787.624 413.168H558.274V416.956H787.624V413.168Z" fill="#EFEFF1"/>
<path d="M787.624 424.322H558.274V428.11H787.624V424.322Z" fill="#EFEFF1"/>
<path d="M787.624 435.479H558.274V439.267H787.624V435.479Z" fill="#EFEFF1"/>
<path d="M767.615 399.522H760.365V480.787H767.615V399.522Z" fill="#231F20"/>
<path d="M585.53 399.522H578.281V480.787H585.53V399.522Z" fill="#231F20"/>
<path d="M0.30636 435.485H-25.0981V502.279H0.30636V435.485Z" fill="#7F6B4C"/>
<path d="M912.446 561.331C914.404 561.331 915.991 559.726 915.991 557.747C915.991 555.767 914.404 554.163 912.446 554.163C910.487 554.163 908.9 555.767 908.9 557.747C908.9 559.726 910.487 561.331 912.446 561.331Z" fill="#F4FFD7"/>
<path d="M890.021 518.53C890.021 520.51 888.433 522.114 886.476 522.114C884.518 522.114 882.93 520.51 882.93 518.53C882.93 516.55 884.518 514.946 886.476 514.946C888.433 514.946 890.021 516.55 890.021 518.53Z" fill="#F4FFD7"/>
<path d="M364.357 552.003C364.357 553.983 362.769 555.587 360.811 555.587C358.854 555.587 357.266 553.983 357.266 552.003C357.266 550.023 358.854 548.419 360.811 548.419C362.769 548.425 364.357 550.029 364.357 552.003Z" fill="#F4FFD7"/>
<path d="M332.889 517.686C334.847 517.686 336.434 516.082 336.434 514.102C336.434 512.123 334.847 510.519 332.889 510.519C330.931 510.519 329.343 512.123 329.343 514.102C329.343 516.082 330.931 517.686 332.889 517.686Z" fill="#F4FFD7"/>
<path d="M258.269 546.278C260.227 546.278 261.814 544.673 261.814 542.694C261.814 540.715 260.227 539.11 258.269 539.11C256.311 539.11 254.723 540.715 254.723 542.694C254.723 544.673 256.311 546.278 258.269 546.278Z" fill="#F4FFD7"/>
<path d="M210.389 517.681C210.389 519.661 208.801 521.265 206.844 521.265C204.886 521.265 203.298 519.661 203.298 517.681C203.298 515.701 204.886 514.097 206.844 514.097C208.801 514.103 210.389 515.707 210.389 517.681Z" fill="#F4FFD7"/>
<path d="M176.36 526.928C176.36 528.908 174.771 530.512 172.814 530.512C170.857 530.512 169.269 528.908 169.269 526.928C169.269 524.948 170.857 523.344 172.814 523.344C174.771 523.344 176.36 524.948 176.36 526.928Z" fill="#F4FFD7"/>
<path d="M168.121 556.512C168.121 558.492 166.533 560.096 164.576 560.096C162.618 560.096 161.03 558.492 161.03 556.512C161.03 554.532 162.618 552.928 164.576 552.928C166.533 552.928 168.121 554.532 168.121 556.512Z" fill="#F4FFD7"/>
<path d="M336.434 543.773C336.434 545.754 334.846 547.357 332.889 547.357C330.932 547.357 329.343 545.754 329.343 543.773C329.343 541.793 330.932 540.189 332.889 540.189C334.846 540.189 336.434 541.793 336.434 543.773Z" fill="#F4FFD7"/>
<path d="M294.13 518.389C296.088 518.389 297.675 516.785 297.675 514.805C297.675 512.826 296.088 511.221 294.13 511.221C292.172 511.221 290.584 512.826 290.584 514.805C290.584 516.785 292.172 518.389 294.13 518.389Z" fill="#F4FFD7"/>
<path d="M231.143 528.674C231.143 530.654 229.554 532.258 227.597 532.258C225.64 532.258 224.052 530.654 224.052 528.674C224.052 526.694 225.64 525.09 227.597 525.09C229.554 525.09 231.143 526.694 231.143 528.674Z" fill="#F4FFD7"/>
<path d="M130.129 530.512C130.129 532.492 128.541 534.096 126.583 534.096C124.626 534.096 123.038 532.492 123.038 530.512C123.038 528.532 124.626 526.928 126.583 526.928C128.541 526.928 130.129 528.532 130.129 530.512Z" fill="#F4FFD7"/>
<path d="M123.567 564.871C123.567 566.851 121.978 568.455 120.021 568.455C118.064 568.455 116.476 566.851 116.476 564.871C116.476 562.891 118.064 561.287 120.021 561.287C121.978 561.287 123.567 562.891 123.567 564.871Z" fill="#F4FFD7"/>
<path d="M100.371 519.569C100.371 521.549 98.7824 523.153 96.825 523.153C94.8677 523.153 93.2795 521.549 93.2795 519.569C93.2795 517.589 94.8677 515.985 96.825 515.985C98.7824 515.992 100.371 517.595 100.371 519.569Z" fill="#F4FFD7"/>
<path d="M90.2628 557.519C92.2209 557.519 93.8083 555.914 93.8083 553.935C93.8083 551.956 92.2209 550.351 90.2628 550.351C88.3047 550.351 86.7173 551.956 86.7173 553.935C86.7173 555.914 88.3047 557.519 90.2628 557.519Z" fill="#F4FFD7"/>
<path d="M925.916 536.712C925.916 538.692 924.328 540.296 922.37 540.296C920.413 540.296 918.825 538.692 918.825 536.712C918.825 534.732 920.413 533.128 922.37 533.128C924.328 533.134 925.916 534.738 925.916 536.712Z" fill="#F4FFD7"/>
<path d="M1000.69 533.133C1000.69 535.113 999.098 536.717 997.141 536.717C995.183 536.717 993.595 535.113 993.595 533.133C993.595 531.153 995.183 529.549 997.141 529.549C999.098 529.549 1000.69 531.153 1000.69 533.133Z" fill="#F4FFD7"/>
<path d="M974.581 518.668C970.479 552.762 960.006 585.011 943.088 615.478H870.502C860.908 598.175 847.43 570.219 837.836 552.91C850.067 566.74 862.373 580.644 874.604 594.474C866.769 579.015 858.927 563.489 851.092 547.956C862.959 563.859 874.75 579.762 886.618 595.658L848.455 512.604C860.176 523.029 877.751 550.177 898.555 586.337C897.236 562.742 894.013 539.894 884.859 519.778C899.071 529.173 906.836 557.055 913.868 587.077C920.461 559.417 928.003 528.796 925.073 497.071C930.271 533.164 934.813 552.984 929.984 583.679C935.551 572.439 939.724 557.499 942.8 540.042C945.654 560.232 941.259 582.198 933.5 604.979C948.655 580.792 962.204 551.429 974.581 518.668Z" fill="#57975A"/>
<path d="M999.999 562.97C994.578 583.901 985.788 602.018 971.36 615.478H944.262C960.524 596.102 973.85 575.912 980.519 554.094C979.64 574.506 973.487 591.889 960.963 608.378C975.831 598.243 988.648 582.494 999.999 562.97Z" fill="#57975A"/>
<path d="M1010.4 583.308C1005.27 595.658 997.215 606.237 987.252 615.477H973.188C986.965 606.971 999.412 596.324 1010.4 583.308Z" fill="#57975A"/>
<path d="M1017.29 602.388C1015.24 606.749 1012.24 611.116 1008.5 615.477H999.197C1006.74 611.19 1012.89 606.897 1017.29 602.388Z" fill="#57975A"/>
<path d="M769.346 563.779C774.473 581.014 779.601 598.243 784.729 615.478H771.69C770.887 598.027 770.371 577.979 769.346 563.779Z" fill="#57975A"/>
<path d="M783.412 564.963C786.928 581.828 790.444 598.613 794.031 615.478H785.17C784.584 598.693 783.998 581.754 783.412 564.963Z" fill="#57975A"/>
<path d="M795.79 531.756C801.873 545.734 806.262 576.059 809.925 615.476H795.643L795.79 531.756Z" fill="#57975A"/>
<path d="M826.258 615.478H812.047C819.958 594.992 825.672 574.506 825.742 553.872C833.583 566.518 831.098 589.817 826.258 615.478Z" fill="#57975A"/>
<path d="M106.613 579.98C110.199 591.812 113.716 603.649 117.232 615.481H108.295C107.861 602.687 107.345 589.893 106.613 579.98Z" fill="#57975A"/>
<path d="M120.754 581.163C123.098 592.625 125.519 604.018 127.933 615.479H121.926C121.557 604.018 121.117 592.551 120.754 581.163Z" fill="#57975A"/>
<path d="M133.133 547.958C138.261 559.938 142.363 583.977 145.657 615.48H132.987L133.133 547.958Z" fill="#57975A"/>
<path d="M166.313 615.481H155.108C159.943 600.392 163.019 585.23 163.09 570.073C169.243 579.98 169.02 596.475 166.313 615.481Z" fill="#57975A"/>
<path d="M220.224 558.013C224.695 577.166 229.161 596.326 233.626 615.479H221.689C221.173 596.326 220.733 577.172 220.224 558.013Z" fill="#57975A"/>
<path d="M250.18 535.974L250.397 615.481H237.141C241.46 588.931 245.855 562.53 250.18 535.974Z" fill="#57975A"/>
<path d="M262.557 569.111C262.047 584.643 261.531 600.028 261.022 615.48H252.893C256.111 600.022 259.334 584.637 262.557 569.111Z" fill="#57975A"/>
<path d="M276.692 567.927C275.737 581.017 275.151 599.066 274.495 615.481H262.557C267.246 599.652 271.934 583.829 276.692 567.927Z" fill="#57975A"/>
<path d="M-59.593 557.05C-59.1183 555.539 -55.0337 543.276 -42.3461 538.563C-32.6765 534.973 -21.6709 537.126 -13.6598 544.109C-4.23053 524.511 16.5502 514.419 34.559 518.842C56.7579 524.289 72.0475 551.11 63.2453 577.394C65.1381 577.092 73.9169 575.895 82.1682 581.706C91.9433 588.59 93.0098 599.7 93.1329 601.236C97.5164 599.669 109.647 595.999 124.363 600.046C137.882 603.759 146.122 611.939 149.31 615.467C79.6717 615.467 10.0394 615.467 -59.5989 615.467V557.05H-59.593Z" fill="#3DA2A4"/>
<path d="M-59.5935 615.461C-59.2595 614.276 -56.3645 604.659 -47.0759 601.193C-42.3876 599.441 -38.1623 600.045 -36.0877 600.502C-40.9167 590.231 -39.264 578.134 -31.9679 569.992C-21.9526 558.808 -7.07328 561.522 -6.32902 561.67C0.0880363 552.374 10.9238 547.47 21.3669 549.191C34.1834 551.301 44.3218 563.046 44.8668 577.388C48.4533 577.777 56.9625 579.22 64.6337 585.938C77.2451 596.986 77.0575 613.092 76.9931 615.454C31.4583 615.461 -14.0705 615.461 -59.5935 615.461Z" fill="url(#paint1_linear_2967_10742)"/>
<path d="M319.61 602.352C324.281 597.287 337.561 584.253 358.98 580.163C372.67 577.548 384.068 579.657 390.567 581.409C391.229 578.22 396.175 556.229 417.12 545.033C434.361 535.817 455.787 537.477 472.512 549.197C472.207 557.056 471.903 564.908 471.598 572.767L418.955 605.121L341.587 607.897L319.61 602.352Z" fill="#3DA2A4"/>
<path d="M246.368 615.46C254.772 609.236 276.367 595.048 306.794 594.339C324.902 593.913 339.395 598.416 348.302 602.044C354.069 598.725 367.847 591.853 386.453 592.488C402.282 593.031 414.002 598.75 419.722 602.044C415.145 576.24 431.285 552.559 452.985 548.118C470.185 544.595 489.015 553.534 499.071 570.614C501.427 570.38 512.046 569.572 521.657 577.085C532.838 585.826 533.758 598.854 533.864 600.81C542.607 598.793 555.465 596.936 570.79 598.651C592.977 601.131 609.315 609.859 618.094 615.46C494.183 615.46 370.273 615.46 246.368 615.46Z" fill="url(#paint2_linear_2967_10742)"/>
<path d="M992.866 615.462C1000.55 597.789 1017.09 585.884 1035.59 584.786C1059.91 583.342 1075.19 601.318 1076.8 603.273C1078.69 602.255 1086.42 598.381 1096.03 600.806C1107.87 603.804 1113.01 613.969 1113.72 615.456C1073.43 615.462 1033.15 615.462 992.866 615.462Z" fill="url(#paint3_linear_2967_10742)"/>
<path d="M-59.5361 317.911C-56.061 316.622 -34.9755 309.201 -13.9076 320.687C-0.639874 327.917 5.89439 338.977 8.3733 343.801C12.3642 341.876 20.4456 338.662 30.959 339.18C44.8362 339.865 54.371 346.632 57.8169 349.346C64.3921 334.696 78.2753 324.684 94.1333 323.154C110.003 321.625 125.521 328.811 134.722 341.95C138.549 340.192 150.961 335.084 165.852 339.174C174.789 341.629 180.913 346.379 184.165 349.34C187.705 345.75 207.994 325.844 240.014 326.226C270.863 326.596 290.272 345.516 294.035 349.34C298.553 347.57 325.839 337.373 353.242 351.808C369.047 360.129 377.457 372.731 381.014 378.925C234.166 378.925 87.3119 378.925 -59.5361 378.925V317.911Z" fill="url(#paint4_linear_2967_10742)"/>
<path d="M1405.49 318.221C1404.25 317.142 1375.69 292.961 1339.95 305.199C1304.2 317.444 1296.1 354.215 1295.77 355.813C1292.66 354.048 1285.66 350.656 1276.32 350.958C1263.42 351.377 1254.86 358.551 1252.44 360.741C1250.06 345.573 1238.85 333.402 1224.36 330.157C1211.12 327.196 1197.17 332.131 1188.35 342.871C1187.16 342.353 1176.43 337.88 1165.76 344.024C1156.29 349.477 1154.02 359.181 1153.68 360.741C1149.47 357.09 1134.96 345.437 1113.35 344.95C1085.59 344.32 1067.88 362.617 1065.01 365.67C1061.2 361.858 1040.06 341.508 1006.91 341.939C975.097 342.353 954.973 361.605 950.906 365.67C947.225 363.073 939.707 358.564 929.31 357.657C911.425 356.096 898.725 366.404 895.971 368.754C893.029 366.059 884.45 358.922 871.34 357.54C861.606 356.516 853.941 359.15 850.19 360.741C842.033 351.63 830.248 347.59 819.67 350.495C811.19 352.821 806.232 358.866 804.409 361.358C802.604 360.846 795.015 358.909 786.94 362.974C777.739 367.607 774.95 376.484 774.504 377.995C984.831 377.995 1195.16 377.995 1405.49 377.995V318.221Z" fill="url(#paint5_linear_2967_10742)"/>
<path d="M466.165 378.927H620.285C618.791 376.428 607.199 357.805 583.969 354.579C563.774 351.779 549.194 362.611 546.428 364.745C543.609 362.66 525.196 349.539 500.951 354.881C479.526 359.613 468.456 375.472 466.165 378.927Z" fill="url(#paint6_linear_2967_10742)"/>
<path d="M92.6035 437.169H223.259C217.182 413.901 198.371 397.826 177.983 397.184C158.696 396.573 145.475 410.015 142.961 412.667C139.949 410.897 131.024 406.203 120.071 408.275C106.838 410.786 96.0259 422.161 92.6035 437.169Z" fill="url(#paint7_linear_2967_10742)"/>
<path d="M136.351 59.2448C137.453 61.4655 144.116 75.5176 137.893 91.7842C131.446 108.575 116.356 114.343 114.158 115.157C110.789 116.86 105.151 119.148 97.8257 119.518C85.9585 120.11 77.1739 115.231 73.7983 113.084C72.9193 113.158 65.377 113.306 58.2743 108.723C56.0767 107.243 53.9494 105.392 52.0448 102.882C44.7194 93.3387 47.1397 82.3956 47.4327 80.9151C43.6997 76.1838 42.8148 70.046 45.1589 65.2345C46.917 61.6814 49.9937 59.911 51.3123 59.2448C50.2105 57.6903 40.6934 44.9706 44.9421 28.6978C48.3821 15.46 58.5673 9.02613 60.765 7.69371C64.6445 -7.46873 77.3907 -18.3378 92.1118 -19.3742C104.565 -20.1884 116.725 -13.7546 123.681 -2.73126C125.586 -2.13907 141.409 2.59228 147.486 18.3469C152.831 32.0967 148.435 48.6656 136.351 59.2448Z" fill="#16CB74"/>
<path d="M136.354 59.2455C137.456 61.4662 144.119 75.5183 137.895 91.7849C131.449 108.576 116.359 114.344 114.161 115.158C110.791 116.86 105.154 119.149 97.8282 119.519C85.961 120.111 77.1764 115.232 73.8008 113.085C72.9218 113.159 65.3796 113.307 58.2769 108.724C60.328 108.872 67.7999 109.39 74.6858 104.363C79.0048 101.186 81.2024 97.2626 82.1577 95.1159C84.8651 94.3757 97.6114 90.7547 105.083 77.8809C110.065 69.2263 110.135 60.7938 109.918 57.2469C122.811 57.3949 134.455 50.887 139.583 40.604C146.545 26.4778 140.462 6.73212 123.69 -2.73669C125.594 -2.14451 141.417 2.58681 147.494 18.3414C152.833 32.0974 148.438 48.6664 136.354 59.2455Z" fill="#69ABB9"/>
<path d="M177.435 185.003C178.021 186.996 181.484 199.58 173.983 212.083C166.23 224.982 152.939 227.517 151.011 227.863C147.981 228.769 142.994 229.824 136.899 229.047C127.018 227.782 120.478 222.453 118.005 220.183C117.273 220.115 111.026 219.122 105.827 214.285C104.228 212.737 102.745 210.899 101.538 208.542C96.8788 199.586 100.459 190.913 100.917 189.734C98.5197 185.275 98.6837 180.081 101.315 176.46C103.278 173.789 106.079 172.777 107.263 172.425C106.583 170.982 100.571 159.076 106.437 146.277C111.196 135.858 120.531 132.058 122.541 131.281C127.944 119.344 140.04 112.257 152.335 113.577C162.731 114.749 171.832 121.855 175.976 131.978C177.458 132.749 189.829 138.991 192.56 152.895C194.975 165.035 188.944 178.057 177.435 185.003Z" fill="#16CB74"/>
<path d="M177.434 185.006C178.02 186.998 181.484 199.582 173.982 212.086C166.229 224.985 152.938 227.52 151.01 227.865C147.98 228.772 142.993 229.827 136.898 229.05C127.018 227.785 120.478 222.456 118.005 220.186C117.272 220.118 111.025 219.125 105.827 214.288C107.497 214.714 113.586 216.244 119.997 213.116C124.023 211.13 126.408 208.218 127.504 206.59C129.848 206.38 140.889 205.276 148.924 195.758C154.292 189.355 155.575 182.409 155.903 179.442C166.522 181.471 177.077 177.819 182.796 170.096C190.591 159.468 188.434 142.276 175.969 131.981C177.452 132.752 189.823 138.994 192.554 152.898C194.974 165.038 188.944 178.06 177.434 185.006Z" fill="#69ABB9"/>
<path d="M8.8617 174.831C8.27567 176.824 4.81222 189.408 12.3134 201.912C20.0666 214.81 33.3579 217.345 35.2859 217.691C38.3157 218.598 43.297 219.652 49.3976 218.875C59.2781 217.611 65.8182 212.281 68.2913 210.011C69.0238 209.943 75.2768 208.95 80.469 204.114C82.0689 202.565 83.5515 200.727 84.7588 198.371C89.4177 189.414 85.8371 180.741 85.38 179.563C87.7768 175.103 87.6127 169.909 84.9815 166.288C83.0183 163.617 80.2229 162.611 79.0332 162.254C79.713 160.81 85.7257 148.905 79.8595 136.105C75.0951 125.686 65.7655 121.886 63.7554 121.109C58.3521 109.173 46.2564 102.085 33.9556 103.405C23.5594 104.577 14.4583 111.683 10.3151 121.806C8.8324 122.577 -3.53875 128.82 -6.26966 142.718C-8.67825 154.87 -2.64798 167.892 8.8617 174.831Z" fill="#16CB74"/>
<path d="M8.86123 174.832C8.2752 176.825 4.81175 189.409 12.313 201.912C20.0662 214.811 33.3574 217.346 35.2854 217.692C38.3152 218.598 43.2965 219.653 49.3971 218.876C59.2776 217.611 65.8177 212.282 68.2908 210.012C69.0233 209.944 75.2763 208.951 80.4685 204.115C78.7983 204.54 72.7095 206.07 66.2983 202.942C62.2722 200.956 59.8871 198.045 58.7912 196.416C56.4471 196.206 45.4062 195.102 37.3717 185.584C32.0036 179.181 30.7202 172.235 30.3862 169.268C19.7673 171.298 9.21285 167.646 3.49317 159.923C-4.30106 149.294 -2.14446 132.096 10.3205 121.807C8.83779 122.578 -3.53336 128.82 -6.26427 142.718C-8.67872 154.871 -2.64845 167.892 8.86123 174.832Z" fill="#69ABB9"/>
<path d="M96.7252 435.913H87.1318L89.2591 229.647V226.982L90.2085 132.534L90.2788 128.321L90.648 71.2678C90.648 70.5276 91.2341 70.0094 91.9666 70.0094C92.6288 70.0094 93.2149 70.6016 93.2149 71.2678L93.5079 118.112V121.147L94.7503 245.617L94.8264 248.356L96.7252 435.913Z" fill="#3A6332"/>
<path d="M91.9407 250.15C91.5832 250.15 91.2316 249.977 91.0264 249.65C90.6924 249.138 90.8331 248.454 91.337 248.114C120.697 228.535 135.12 172.752 135.26 172.197C135.413 171.611 135.981 171.266 136.596 171.395C137.182 171.55 137.54 172.154 137.393 172.746C136.801 175.072 122.614 229.917 92.5501 249.965C92.3626 250.095 92.1458 250.15 91.9407 250.15Z" fill="#3A6332"/>
<path d="M91.9415 230.83C91.7892 230.83 91.6427 230.799 91.4962 230.737C70.61 221.367 51.1771 180.932 50.3567 179.217C50.093 178.662 50.3215 178.002 50.8665 177.737C51.4408 177.471 52.0738 177.706 52.3316 178.255C52.5309 178.668 72.2333 219.671 92.3811 228.702C92.9378 228.948 93.1898 229.608 92.9378 230.17C92.762 230.583 92.3635 230.83 91.9415 230.83Z" fill="#3A6332"/>
<path d="M91.9417 122.274C91.6545 122.274 91.3674 122.163 91.1564 121.941C90.7345 121.503 90.7403 120.8 91.1798 120.368L119.714 92.1716C120.136 91.7522 120.845 91.7583 121.267 92.1901C121.689 92.6281 121.683 93.3313 121.243 93.7631L92.7094 121.96C92.4984 122.17 92.2171 122.274 91.9417 122.274Z" fill="#3A6332"/>
<path d="M91.9414 134.292C91.5722 134.292 91.203 134.107 91.0038 133.755L66.8885 93.5422C66.5721 93.0178 66.7362 92.3331 67.2519 92.0185C67.7676 91.6977 68.4532 91.8643 68.7638 92.3948L92.8791 132.608C93.1955 133.132 93.0314 133.811 92.5157 134.132C92.3341 134.243 92.1348 134.292 91.9414 134.292Z" fill="#3A6332"/>
<path d="M407.325 111.597C408.242 113.445 413.788 125.141 408.608 138.68C403.242 152.656 390.682 157.457 388.853 158.135C386.048 159.552 381.355 161.457 375.258 161.765C365.381 162.258 358.069 158.196 355.259 156.41C354.528 156.471 348.25 156.594 342.338 152.779C340.509 151.547 338.738 150.007 337.153 147.917C331.056 139.974 333.07 130.866 333.314 129.634C330.207 125.696 329.47 120.587 331.422 116.582C332.885 113.625 335.446 112.151 336.543 111.597C335.626 110.303 327.705 99.7156 331.241 86.1711C334.104 75.1527 342.582 69.7975 344.411 68.6885C347.64 56.0682 358.249 47.0214 370.502 46.1588C380.868 45.4811 390.989 50.8362 396.779 60.0114C398.364 60.5043 411.534 64.4424 416.593 77.5556C421.041 89.0002 417.383 102.791 407.325 111.597Z" fill="#16CB74"/>
<path d="M407.326 111.597C408.243 113.445 413.789 125.141 408.609 138.681C403.244 152.657 390.683 157.457 388.854 158.135C386.049 159.552 381.357 161.457 375.26 161.765C365.382 162.258 358.07 158.197 355.261 156.41C354.529 156.471 348.251 156.595 342.339 152.78C344.047 152.903 350.266 153.334 355.997 149.15C359.592 146.506 361.421 143.24 362.216 141.453C364.47 140.837 375.079 137.823 381.298 127.108C385.444 119.904 385.503 112.886 385.323 109.933C396.054 110.057 405.746 104.64 410.014 96.0808C415.809 84.323 410.746 67.8879 396.785 60.0066C398.371 60.4995 411.541 64.4376 416.599 77.5508C421.043 89.0005 417.384 102.791 407.326 111.597Z" fill="#69ABB9"/>
<path d="M441.52 216.271C442.008 217.929 444.891 228.403 438.647 238.811C432.194 249.547 421.131 251.657 419.526 251.945C417.004 252.699 412.853 253.577 407.781 252.93C399.557 251.878 394.113 247.442 392.055 245.552C391.445 245.496 386.245 244.669 381.919 240.644C380.587 239.355 379.353 237.825 378.348 235.864C374.47 228.409 377.451 221.19 377.831 220.209C375.836 216.497 375.973 212.174 378.163 209.16C379.797 206.937 382.128 206.095 383.114 205.802C382.548 204.6 377.543 194.691 382.426 184.037C386.387 175.365 394.157 172.202 395.83 171.555C400.327 161.62 410.395 155.721 420.629 156.82C429.282 157.795 436.857 163.71 440.306 172.136C441.54 172.778 451.837 177.973 454.11 189.546C456.119 199.651 451.1 210.49 441.52 216.271Z" fill="#16CB74"/>
<path d="M441.52 216.272C442.008 217.931 444.891 228.405 438.647 238.812C432.194 249.548 421.131 251.658 419.527 251.946C417.005 252.701 412.854 253.579 407.781 252.932C399.557 251.879 394.113 247.443 392.055 245.554C391.445 245.497 386.245 244.671 381.919 240.645C383.309 240.999 388.377 242.273 393.713 239.67C397.064 238.016 399.05 235.593 399.962 234.237C401.913 234.063 411.103 233.144 417.79 225.221C422.258 219.892 423.326 214.111 423.6 211.641C432.438 213.33 441.223 210.291 445.984 203.862C452.471 195.016 450.676 180.706 440.301 172.137C441.535 172.779 451.832 177.975 454.105 189.548C456.12 199.652 451.1 210.491 441.52 216.272Z" fill="#69ABB9"/>
<path d="M301.21 207.804C300.722 209.463 297.839 219.937 304.083 230.344C310.536 241.08 321.599 243.191 323.203 243.478C325.725 244.233 329.871 245.111 334.949 244.464C343.173 243.411 348.617 238.975 350.675 237.086C351.285 237.029 356.489 236.203 360.811 232.177C362.143 230.889 363.377 229.359 364.382 227.397C368.26 219.942 365.279 212.723 364.899 211.743C366.894 208.03 366.757 203.707 364.567 200.693C362.933 198.47 360.606 197.633 359.616 197.335C360.182 196.134 365.187 186.225 360.304 175.571C356.338 166.899 348.573 163.736 346.9 163.089C342.402 153.154 332.335 147.255 322.096 148.353C313.443 149.329 305.868 155.244 302.419 163.669C301.185 164.311 290.888 169.507 288.615 181.075C286.61 191.19 291.63 202.028 301.21 207.804Z" fill="#16CB74"/>
<path d="M301.209 207.806C300.721 209.464 297.838 219.938 304.082 230.346C310.535 241.082 321.598 243.192 323.203 243.479C325.724 244.234 329.871 245.112 334.948 244.465C343.172 243.413 348.616 238.976 350.674 237.087C351.284 237.03 356.489 236.204 360.81 232.179C359.42 232.533 354.352 233.806 349.016 231.203C345.665 229.55 343.68 227.126 342.767 225.771C340.816 225.596 331.627 224.677 324.939 216.755C320.471 211.425 319.403 205.644 319.125 203.174C310.286 204.864 301.501 201.824 296.741 195.396C290.253 186.549 292.048 172.235 302.423 163.67C301.189 164.312 290.892 169.508 288.619 181.076C286.609 191.191 291.629 202.029 301.209 207.806Z" fill="#69ABB9"/>
<path d="M374.342 425.113H366.357L368.127 253.429V251.211L368.918 172.598L368.976 169.092L369.283 121.604C369.283 120.988 369.771 120.556 370.381 120.556C370.932 120.556 371.42 121.049 371.42 121.604L371.664 160.594V163.12L372.698 266.722L372.761 269.002L374.342 425.113Z" fill="#3A6332"/>
<path d="M370.358 270.495C370.061 270.495 369.768 270.351 369.597 270.079C369.319 269.653 369.436 269.083 369.856 268.801C394.294 252.504 406.298 206.074 406.415 205.612C406.542 205.124 407.015 204.837 407.527 204.944C408.015 205.073 408.312 205.576 408.19 206.069C407.698 208.004 395.889 253.654 370.866 270.341C370.709 270.449 370.529 270.495 370.358 270.495Z" fill="#3A6332"/>
<path d="M370.359 254.414C370.232 254.414 370.111 254.388 369.989 254.337C352.604 246.538 336.429 212.882 335.746 211.455C335.527 210.993 335.717 210.443 336.171 210.222C336.649 210.002 337.176 210.197 337.39 210.654C337.556 210.998 353.955 245.126 370.725 252.643C371.189 252.848 371.398 253.398 371.189 253.865C371.042 254.209 370.71 254.414 370.359 254.414Z" fill="#3A6332"/>
<path d="M370.359 164.06C370.12 164.06 369.881 163.967 369.705 163.782C369.354 163.418 369.359 162.832 369.725 162.473L393.475 139.004C393.826 138.655 394.416 138.66 394.768 139.019C395.119 139.384 395.114 139.969 394.748 140.328L370.998 163.798C370.823 163.972 370.588 164.06 370.359 164.06Z" fill="#3A6332"/>
<path d="M370.359 174.062C370.052 174.062 369.745 173.908 369.579 173.615L349.507 140.144C349.243 139.708 349.38 139.138 349.809 138.876C350.239 138.609 350.809 138.748 351.068 139.189L371.14 172.66C371.403 173.097 371.267 173.662 370.837 173.929C370.686 174.021 370.52 174.062 370.359 174.062Z" fill="#3A6332"/>
<path d="M1063.43 164.14C1054.57 176.341 1036.11 180.561 1020.58 172.276C1020.07 173.461 1013.99 186.106 1000.22 188.475C990.995 190.03 983.816 186.032 981.694 184.774C970.636 192.91 957.011 193.281 948.736 186.551C943.022 181.967 941.411 175.231 940.901 172.35C939.365 173.831 936.142 176.564 931.161 178.044C925.67 179.598 921.052 178.784 919.001 178.266C911.529 196.531 893.508 207.703 875.054 206C859.378 204.52 845.606 193.947 839.382 178.71C824.808 171.388 815.501 156.744 814.845 140.841V140.767C814.699 138.472 814.775 136.184 815.068 133.889C817.189 116.136 829.865 101.276 847.147 96.4642C846.854 94.7616 844.07 75.386 858.575 61.3339C871.907 48.3922 888.896 50.3908 891.094 50.6808C894.241 26.3518 913.14 8.52445 934.091 7.7102C958.259 6.74789 972.839 28.8624 973.496 29.8987C989.096 18.7335 1010.85 22.0584 1022.5 37.2948C1024.11 39.3675 1025.43 41.6561 1026.53 43.9508C1033.12 58.299 1029.83 75.972 1017.44 86.6992C1026.67 83.2201 1037.07 85.2928 1043.96 92.0227C1053.34 101.195 1051.29 113.915 1051.06 114.951C1069.66 125.685 1074.06 149.644 1063.43 164.14Z" fill="#37B45A"/>
<path d="M1026.81 133.673C1027.33 135.968 1028.42 142.106 1025.05 147.281C1020.29 154.677 1008.21 157.342 996.561 151.717C983.082 159.261 967.482 159.113 956.64 151.124C949.022 145.579 945.945 137.739 944.773 133.963C944.626 134.259 941.626 139.509 935.619 139.731C930.714 139.953 927.561 136.548 927.122 136.036C926.682 138.775 925.293 146.097 919.286 152.679C913.057 159.557 905.661 161.556 903.024 162.148C902.731 162.666 898.336 170.95 889.106 171.765C882.15 172.431 875.41 168.582 872.111 162.148C869.11 168.582 863.174 172.943 856.874 173.017C848.23 173.165 839.809 165.102 839.369 154.085C838.566 154.529 832.044 158.298 824.865 155.344C819.151 152.975 815.195 147.281 814.832 140.847V140.773C814.686 138.479 814.762 136.19 815.055 133.895C817.176 116.142 829.852 101.282 847.134 96.4705C846.841 94.768 844.057 75.3924 858.562 61.3403C871.894 48.3985 888.883 50.3972 891.081 50.6871C894.228 26.3581 913.127 8.5308 934.078 7.71654C958.246 6.75424 972.826 28.8687 973.483 29.905C989.083 18.7399 1010.84 22.0647 1022.49 37.3012C1024.1 39.3738 1025.42 41.6624 1026.51 43.9571C1023.44 45.0675 1020 45.8817 1016.26 46.3259C1009.3 47.1401 1003.29 46.1778 999.116 45.1415C1000.36 46.3259 1003 49.2066 1004.17 53.722C1006 61.1922 1001.98 67.256 1001.24 68.2183C1003.37 70.3649 1010.1 77.7611 1011.21 89.5185C1012.15 99.2834 1008.71 106.68 1007.17 109.486C1016.55 106.087 1026.14 110.226 1029.3 117.475C1031.5 122.502 1030.4 128.788 1026.81 133.673Z" fill="#16CB74"/>
<path d="M947.636 401.544H936.285L938.043 233.363V230.846L938.412 199.929V196.968L938.629 174.261L938.922 151.406V148.297L938.992 138.977L939.578 89.4243V85.7293L939.941 50.6731C939.941 49.5627 940.82 48.6744 941.992 48.6744C943.018 48.6744 943.897 49.5627 943.967 50.6731L944.63 115.092L944.7 117.831L944.846 134.178L945.069 157.18L945.139 159.993L945.356 182.996L945.649 215.091L945.72 217.682L947.636 401.544Z" fill="#3A6332"/>
<path d="M941.944 119.588C941.61 119.588 941.27 119.434 941.059 119.138C940.702 118.644 940.807 117.947 941.294 117.583L999.528 74.4462C1000.02 74.0822 1000.71 74.1871 1001.06 74.6868C1001.42 75.1803 1001.32 75.8773 1000.83 76.2412L942.595 119.378C942.396 119.52 942.173 119.588 941.944 119.588Z" fill="#3A6332"/>
<path d="M941.947 91.8563C941.612 91.8563 941.284 91.702 941.067 91.4121L911.403 51.3532C911.039 50.8597 911.139 50.1688 911.625 49.7987C912.112 49.4347 912.797 49.5273 913.161 50.0208L942.826 90.0797C943.189 90.5732 943.089 91.2641 942.603 91.6342C942.404 91.7884 942.175 91.8563 941.947 91.8563Z" fill="#3A6332"/>
<path d="M941.946 154.108C941.659 154.108 941.372 153.997 941.161 153.775L880.981 91.5275C880.559 91.0833 880.565 90.3863 881.004 89.9545C881.438 89.5289 882.136 89.5412 882.557 89.973L942.737 152.22C943.159 152.658 943.153 153.362 942.714 153.793C942.497 154.003 942.221 154.108 941.946 154.108Z" fill="#3A6332"/>
<path d="M941.945 162.116C941.617 162.116 941.289 161.961 941.072 161.678C940.697 161.19 940.802 160.493 941.277 160.123L1011.72 106.037C1012.2 105.673 1012.88 105.765 1013.25 106.253C1013.63 106.74 1013.52 107.437 1013.05 107.807L942.607 161.894C942.408 162.048 942.18 162.116 941.945 162.116Z" fill="#3A6332"/>
<path d="M941.945 202.798C941.681 202.798 941.406 202.699 941.201 202.508L863.323 129.786C862.871 129.367 862.848 128.664 863.258 128.213C863.68 127.769 864.372 127.738 864.811 128.152L942.695 200.873C943.146 201.293 943.17 201.996 942.759 202.446C942.531 202.675 942.238 202.798 941.945 202.798Z" fill="#3A6332"/>
<path d="M941.944 220.05C941.593 220.05 941.253 219.878 941.036 219.569C940.69 219.057 940.831 218.372 941.329 218.027L1025.81 160.091C1026.3 159.758 1026.99 159.875 1027.34 160.387C1027.68 160.893 1027.54 161.584 1027.04 161.93L942.56 219.865C942.372 219.989 942.155 220.05 941.944 220.05Z" fill="#3A6332"/>
<path d="M941.943 235.459C941.755 235.459 941.58 235.416 941.404 235.317L872.68 196.492C872.152 196.19 871.965 195.517 872.258 194.981C872.557 194.444 873.225 194.253 873.752 194.555L942.476 233.38C943.004 233.683 943.191 234.355 942.898 234.892C942.699 235.262 942.33 235.459 941.943 235.459Z" fill="#3A6332"/>
<path d="M1112.16 264.498C1106.87 271.783 1095.86 274.3 1086.58 269.353C1086.28 270.062 1082.65 277.613 1074.43 279.025C1068.92 279.951 1064.63 277.57 1063.37 276.817C1056.76 281.672 1048.63 281.894 1043.69 277.878C1040.28 275.139 1039.32 271.123 1039.01 269.402C1038.09 270.285 1036.17 271.919 1033.2 272.801C1029.92 273.727 1027.16 273.245 1025.94 272.931C1021.48 283.837 1010.72 290.505 999.699 289.487C990.34 288.605 982.118 282.289 978.403 273.196C969.7 268.823 964.151 260.082 963.752 250.588V250.545C963.664 249.175 963.711 247.806 963.881 246.437C965.147 235.839 972.713 226.962 983.033 224.094C982.857 223.076 981.198 211.51 989.854 203.121C997.812 195.391 1007.96 196.588 1009.27 196.761C1011.15 182.234 1022.43 171.593 1034.94 171.106C1049.37 170.532 1058.07 183.733 1058.46 184.35C1067.77 177.681 1080.76 179.668 1087.72 188.766C1088.68 190 1089.47 191.369 1090.12 192.739C1094.06 201.307 1092.09 211.855 1084.7 218.258C1090.21 216.186 1096.42 217.42 1100.53 221.435C1106.12 226.913 1104.9 234.507 1104.77 235.123C1115.89 241.539 1118.51 255.844 1112.16 264.498Z" fill="#37B45A"/>
<path d="M1090.31 246.307C1090.61 247.677 1091.27 251.341 1089.26 254.431C1086.42 258.848 1079.2 260.433 1072.25 257.078C1064.21 261.581 1054.89 261.494 1048.42 256.726C1043.87 253.414 1042.04 248.732 1041.33 246.486C1041.25 246.665 1039.45 249.799 1035.87 249.928C1032.94 250.058 1031.05 248.028 1030.79 247.72C1030.53 249.355 1029.7 253.722 1026.11 257.651C1022.4 261.76 1017.98 262.95 1016.4 263.302C1016.23 263.61 1013.6 268.558 1008.09 269.039C1003.94 269.433 999.919 267.139 997.949 263.302C996.156 267.145 992.617 269.748 988.854 269.791C983.697 269.878 978.663 265.066 978.405 258.49C977.925 258.756 974.033 261.007 969.75 259.243C966.339 257.83 963.977 254.431 963.76 250.588V250.545C963.672 249.176 963.719 247.806 963.889 246.437C965.155 235.839 972.721 226.963 983.041 224.094C982.865 223.076 981.207 211.51 989.862 203.121C997.821 195.392 1007.96 196.588 1009.28 196.761C1011.16 182.234 1022.44 171.593 1034.95 171.106C1049.37 170.532 1058.08 183.733 1058.47 184.35C1067.78 177.682 1080.77 179.668 1087.72 188.767C1088.68 190 1089.48 191.37 1090.13 192.739C1088.29 193.399 1086.24 193.886 1084 194.152C1079.85 194.639 1076.26 194.065 1073.77 193.449C1074.51 194.152 1076.09 195.879 1076.79 198.568C1077.88 203.028 1075.48 206.649 1075.04 207.223C1076.31 208.506 1080.33 212.917 1080.98 219.937C1081.55 225.766 1079.5 230.183 1078.58 231.86C1084.18 229.831 1089.9 232.305 1091.79 236.629C1093.1 239.639 1092.45 243.396 1090.31 246.307Z" fill="#16CB74"/>
<path d="M1042.99 404.55H1036.25L1037.28 305.889L1037.35 304.335L1037.5 285.848L1037.57 284.071L1037.64 270.611L1037.79 256.929L1037.86 255.005V249.533L1038.23 219.874V217.728L1038.45 196.797C1038.45 196.131 1038.96 195.539 1039.62 195.539C1040.28 195.539 1040.79 196.131 1040.86 196.797L1041.23 235.259L1041.3 236.887L1041.38 246.726L1041.53 260.408V262.037L1041.67 275.719L1041.89 294.872V296.501L1042.99 404.55Z" fill="#3A6332"/>
<path d="M1039.64 237.903C1039.44 237.903 1039.24 237.811 1039.11 237.632C1038.9 237.336 1038.97 236.923 1039.25 236.707L1074.02 210.953C1074.31 210.737 1074.72 210.799 1074.94 211.095C1075.15 211.391 1075.08 211.804 1074.8 212.02L1040.03 237.774C1039.91 237.86 1039.77 237.903 1039.64 237.903Z" fill="#3A6332"/>
<path d="M1039.64 221.342C1039.44 221.342 1039.24 221.249 1039.11 221.077L1021.4 197.161C1021.19 196.865 1021.25 196.452 1021.54 196.236C1021.83 196.02 1022.24 196.075 1022.46 196.371L1040.17 220.287C1040.39 220.583 1040.33 220.996 1040.03 221.212C1039.91 221.305 1039.78 221.342 1039.64 221.342Z" fill="#3A6332"/>
<path d="M1039.64 258.508C1039.47 258.508 1039.3 258.441 1039.17 258.311L1003.25 221.145C1003 220.88 1003 220.467 1003.26 220.207C1003.52 219.955 1003.94 219.961 1004.19 220.22L1040.11 257.386C1040.36 257.651 1040.36 258.064 1040.1 258.323C1039.97 258.447 1039.81 258.508 1039.64 258.508Z" fill="#3A6332"/>
<path d="M1039.64 263.289C1039.44 263.289 1039.25 263.196 1039.12 263.03C1038.89 262.74 1038.95 262.32 1039.24 262.098L1081.29 229.812C1081.58 229.596 1081.99 229.651 1082.21 229.941C1082.44 230.231 1082.38 230.651 1082.09 230.873L1040.04 263.159C1039.91 263.246 1039.78 263.289 1039.64 263.289Z" fill="#3A6332"/>
<path d="M1039.64 287.574C1039.48 287.574 1039.32 287.518 1039.2 287.401L992.7 243.986C992.43 243.733 992.418 243.32 992.659 243.049C992.911 242.783 993.327 242.765 993.585 243.012L1040.08 286.426C1040.35 286.673 1040.36 287.093 1040.12 287.364C1039.99 287.5 1039.82 287.574 1039.64 287.574Z" fill="#3A6332"/>
<path d="M1039.64 297.875C1039.43 297.875 1039.22 297.77 1039.1 297.585C1038.89 297.283 1038.97 296.869 1039.27 296.666L1089.7 262.078C1090 261.881 1090.41 261.949 1090.61 262.251C1090.82 262.553 1090.74 262.967 1090.44 263.17L1040 297.758C1039.89 297.838 1039.77 297.875 1039.64 297.875Z" fill="#3A6332"/>
<path d="M1039.64 307.073C1039.53 307.073 1039.42 307.048 1039.32 306.986L998.29 283.805C997.974 283.626 997.862 283.225 998.038 282.904C998.22 282.583 998.612 282.472 998.929 282.651L1039.96 305.833C1040.27 306.012 1040.38 306.413 1040.21 306.733C1040.09 306.956 1039.87 307.073 1039.64 307.073Z" fill="#3A6332"/>
<path d="M823.165 276.679C819.618 281.563 812.232 283.25 806.017 279.934C805.813 280.409 803.377 285.471 797.869 286.418C794.176 287.038 791.301 285.442 790.452 284.937C786.025 288.192 780.572 288.341 777.26 285.649C774.973 283.813 774.329 281.121 774.125 279.967C773.508 280.558 772.22 281.654 770.228 282.245C768.028 282.866 766.181 282.543 765.36 282.332C762.371 289.643 755.158 294.113 747.772 293.431C741.498 292.84 735.986 288.605 733.496 282.51C727.662 279.578 723.941 273.718 723.674 267.354V267.325C723.615 266.407 723.647 265.489 723.761 264.571C724.609 257.467 729.681 251.516 736.599 249.593C736.481 248.911 735.369 241.158 741.172 235.534C746.507 230.352 753.307 231.154 754.187 231.27C755.448 221.532 763.011 214.398 771.395 214.072C781.067 213.687 786.901 222.537 787.164 222.95C793.406 218.48 802.112 219.811 806.775 225.911C807.42 226.738 807.95 227.656 808.386 228.574C811.026 234.318 809.706 241.389 804.752 245.682C808.445 244.292 812.609 245.119 815.363 247.811C819.115 251.483 818.294 256.574 818.207 256.987C825.66 261.288 827.416 270.878 823.165 276.679Z" fill="#37B45A"/>
<path d="M808.513 264.484C808.717 265.402 809.157 267.859 807.81 269.931C805.905 272.891 801.068 273.954 796.409 271.705C791.015 274.723 784.773 274.665 780.432 271.469C777.383 269.248 776.153 266.11 775.682 264.604C775.623 264.724 774.421 266.825 772.017 266.912C770.052 266.999 768.791 265.638 768.615 265.431C768.438 266.527 767.884 269.455 765.48 272.089C762.989 274.843 760.027 275.641 758.97 275.877C758.852 276.084 757.092 279.4 753.399 279.723C750.614 279.987 747.919 278.449 746.599 275.877C745.397 278.453 743.024 280.198 740.502 280.227C737.045 280.285 733.67 277.06 733.497 272.652C733.175 272.829 730.566 274.339 727.695 273.156C725.408 272.209 723.825 269.931 723.679 267.354V267.325C723.621 266.407 723.652 265.489 723.766 264.571C724.615 257.467 729.686 251.516 736.605 249.593C736.487 248.911 735.375 241.158 741.177 235.534C746.512 230.352 753.313 231.154 754.193 231.27C755.454 221.532 763.016 214.398 771.4 214.072C781.072 213.687 786.906 222.537 787.169 222.95C793.412 218.48 802.117 219.811 806.781 225.911C807.425 226.738 807.955 227.656 808.391 228.574C807.162 229.017 805.783 229.343 804.286 229.521C801.501 229.848 799.096 229.463 797.427 229.05C797.926 229.521 798.982 230.679 799.45 232.482C800.185 235.472 798.57 237.899 798.275 238.284C799.128 239.144 801.823 242.1 802.263 246.806C802.644 250.714 801.265 253.675 800.652 254.8C804.404 253.439 808.242 255.097 809.503 257.996C810.387 260.014 809.947 262.533 808.513 264.484Z" fill="#16CB74"/>
<path d="M776.794 370.566H772.277L772.964 304.427L773.015 303.385L773.113 290.992L773.161 289.801L773.208 280.778L773.306 271.606L773.357 270.316V266.648L773.601 246.766V245.327L773.75 231.296C773.75 230.849 774.092 230.452 774.536 230.452C774.976 230.452 775.321 230.849 775.368 231.296L775.616 257.079L775.663 258.171L775.714 264.766L775.812 273.938V275.03L775.911 284.202L776.056 297.042V298.134L776.794 370.566Z" fill="#3A6332"/>
<path d="M774.547 258.852C774.413 258.852 774.28 258.79 774.193 258.67C774.052 258.471 774.095 258.194 774.287 258.05L797.592 240.785C797.788 240.64 798.063 240.682 798.208 240.88C798.35 241.079 798.307 241.356 798.114 241.5L774.81 258.765C774.727 258.823 774.637 258.852 774.547 258.852Z" fill="#3A6332"/>
<path d="M774.548 247.75C774.414 247.75 774.281 247.688 774.194 247.572L762.322 231.54C762.177 231.341 762.216 231.064 762.413 230.919C762.609 230.775 762.884 230.812 763.029 231.01L774.902 247.043C775.047 247.241 775.008 247.518 774.811 247.663C774.729 247.725 774.638 247.75 774.548 247.75Z" fill="#3A6332"/>
<path d="M774.548 272.665C774.434 272.665 774.32 272.619 774.234 272.532L750.152 247.618C749.983 247.44 749.987 247.163 750.159 246.989C750.332 246.82 750.611 246.824 750.78 246.997L774.862 271.912C775.031 272.09 775.027 272.367 774.854 272.541C774.768 272.623 774.658 272.665 774.548 272.665Z" fill="#3A6332"/>
<path d="M774.547 275.869C774.414 275.869 774.284 275.807 774.198 275.696C774.048 275.501 774.088 275.22 774.28 275.071L802.472 253.427C802.664 253.283 802.939 253.32 803.089 253.514C803.238 253.709 803.198 253.99 803.006 254.139L774.815 275.782C774.732 275.84 774.642 275.869 774.547 275.869Z" fill="#3A6332"/>
<path d="M774.548 292.149C774.442 292.149 774.332 292.112 774.249 292.033L743.08 262.93C742.899 262.76 742.891 262.483 743.052 262.301C743.221 262.123 743.5 262.111 743.673 262.276L774.842 291.38C775.023 291.545 775.031 291.827 774.87 292.009C774.784 292.1 774.666 292.149 774.548 292.149Z" fill="#3A6332"/>
<path d="M774.548 299.055C774.407 299.055 774.269 298.985 774.183 298.861C774.045 298.658 774.1 298.381 774.301 298.245L808.11 275.058C808.306 274.926 808.581 274.972 808.719 275.174C808.856 275.377 808.801 275.654 808.601 275.79L774.792 298.977C774.717 299.03 774.635 299.055 774.548 299.055Z" fill="#3A6332"/>
<path d="M774.548 305.221C774.473 305.221 774.402 305.205 774.332 305.164L746.828 289.623C746.616 289.503 746.541 289.235 746.659 289.02C746.781 288.805 747.044 288.73 747.256 288.85L774.76 304.39C774.972 304.51 775.047 304.779 774.929 304.994C774.85 305.143 774.701 305.221 774.548 305.221Z" fill="#3A6332"/>
<path d="M290.529 274.861C298.511 293.94 288.185 314.426 272.878 318.794C260.278 322.267 244.971 314.729 238.448 299.714C236.473 301.269 231.932 304.298 225.409 305.038C218.523 305.852 213.249 303.705 210.981 302.669C196.623 325.228 170.474 330.625 155.39 319.83C151.505 317.091 148.358 313.248 146.236 308.813C142.497 301.787 140.962 293.058 141.694 284.262C141.185 283.744 135.031 277.532 136.567 268.581C137.592 262.073 142.204 256.75 148.358 254.751C143.523 242.254 145.211 228.498 152.97 219.177C159.709 210.966 168.793 208.968 171.869 208.45C169.232 200.387 170.914 191.585 176.335 185.447C182.342 178.495 192.011 176.126 200.725 179.383C201.382 177.903 205.853 168.588 215.593 165.923C225.479 163.258 236.837 168.588 242.767 179.383C245.041 178.791 254.488 176.422 261.96 181.826C271.336 188.556 274.413 204.829 266.502 219.621C270.897 218.511 275.439 219.917 278.146 223.316C281.223 227.085 280.707 231.674 280.637 232.415C290.599 236.19 297.485 245.282 298.071 255.417C298.663 266.213 291.777 273.609 290.529 274.861Z" fill="#37B45A"/>
<path d="M266.508 219.616C264.527 220.874 260.425 223.169 254.787 223.311C245.997 223.681 239.99 218.802 238.455 217.469C239.041 218.802 242.117 225.31 239.48 232.558C236.913 239.658 229.957 244.537 221.899 245.055C233.327 258.219 230.033 277.299 218.752 284.473C209.598 290.388 195.387 288.316 186.38 278.039C184.698 282.326 181.035 289.796 173.563 296.526C162.868 306.217 150.931 308.21 146.243 308.802C142.504 301.776 140.968 293.047 141.701 284.251C141.191 283.733 135.038 277.521 136.573 268.57C137.599 262.062 142.211 256.739 148.364 254.74C143.529 242.243 145.217 228.487 152.976 219.166C159.715 210.955 168.799 208.957 171.876 208.439C169.238 200.376 170.92 191.574 176.341 185.436C182.348 178.484 192.018 176.115 200.732 179.372C201.388 177.892 205.86 168.577 215.599 165.912C225.486 163.247 236.843 168.577 242.774 179.372C245.048 178.78 254.494 176.411 261.966 181.815C271.343 188.557 274.42 204.824 266.508 219.616Z" fill="#16CB74"/>
<path d="M226.661 379.494H219.74L220.548 347.27V345.043L220.97 308.58L221.099 298.026V296.261L221.521 258.75V257.276L222.113 206.138C222.154 205.552 222.623 205.089 223.215 205.089C223.807 205.089 224.275 205.552 224.275 206.138L224.703 245.71L224.744 247.221L225.213 288.557V290.574L225.424 308.617L225.676 329.393V331.792L226.661 379.494Z" fill="#3A6332"/>
<path d="M223.206 299.942C223.042 299.942 222.872 299.88 222.743 299.75L200.28 276.618C200.034 276.365 200.046 275.97 200.303 275.73C200.55 275.483 200.96 275.489 201.206 275.748L223.669 298.881C223.915 299.133 223.903 299.528 223.645 299.769C223.528 299.886 223.364 299.942 223.206 299.942Z" fill="#3A6332"/>
<path d="M210.512 286.873C210.512 286.873 210.506 286.873 210.494 286.873C193.124 286.46 176.305 260.459 176.194 260.305C175.989 260.021 176.047 259.626 176.334 259.423C176.616 259.225 177.014 259.281 177.225 259.565C177.337 259.713 193.798 285.214 210.529 285.615C210.881 285.621 211.162 285.911 211.151 286.256C211.139 286.602 210.852 286.873 210.512 286.873Z" fill="#3A6332"/>
<path d="M224.205 289.376C224.117 289.333 224.041 289.271 223.976 289.185C223.759 288.901 223.812 288.506 224.088 288.297C235.826 279.451 234.044 259.471 234.021 259.267C233.992 258.916 234.244 258.613 234.589 258.589C234.935 258.57 235.246 258.829 235.281 259.181C235.363 260.032 237.156 280.062 224.861 289.321C224.668 289.469 224.416 289.481 224.205 289.376Z" fill="#3A6332"/>
<path d="M222.573 259.304C222.461 259.304 222.35 259.274 222.244 259.218C192.181 241.459 193.072 209.814 193.089 209.493C193.101 209.154 193.382 208.888 193.722 208.888H193.746C194.097 208.901 194.373 209.197 194.355 209.542C194.349 209.851 193.494 240.768 222.895 258.132C223.2 258.311 223.293 258.7 223.112 258.996C223 259.193 222.789 259.304 222.573 259.304Z" fill="#3A6332"/>
<path d="M222.572 248.452C222.355 248.452 222.144 248.341 222.027 248.143C221.845 247.847 221.945 247.459 222.244 247.28C251.639 229.915 250.789 198.998 250.783 198.689C250.766 198.338 251.041 198.048 251.393 198.036H251.416C251.756 198.036 252.037 198.301 252.049 198.64C252.067 198.961 252.958 230.606 222.9 248.365C222.794 248.421 222.683 248.452 222.572 248.452Z" fill="#3A6332"/>
<path d="M535.652 291.064C542.296 306.945 533.701 323.996 520.96 327.631C510.473 330.522 497.732 324.248 492.303 311.751C490.66 313.044 486.879 315.565 481.45 316.182C475.719 316.859 471.329 315.072 469.441 314.21C457.491 332.986 435.726 337.479 423.17 328.494C419.937 326.214 417.317 323.015 415.551 319.324C412.439 313.476 411.161 306.211 411.771 298.889C411.347 298.458 406.225 293.287 407.503 285.837C408.357 280.421 412.195 275.99 417.317 274.326C413.293 263.924 414.698 252.474 421.156 244.716C426.765 237.882 434.326 236.219 436.887 235.787C434.692 229.077 436.092 221.75 440.604 216.641C445.603 210.855 453.652 208.883 460.905 211.594C461.451 210.362 465.173 202.609 473.28 200.391C481.509 198.173 490.962 202.609 495.898 211.594C497.791 211.101 505.654 209.13 511.873 213.627C519.678 219.229 522.238 232.773 515.653 245.086C519.312 244.161 523.092 245.332 525.346 248.161C527.906 251.298 527.477 255.118 527.419 255.734C535.711 258.877 541.442 266.445 541.93 274.88C542.423 283.866 536.691 290.022 535.652 291.064Z" fill="#37B45A"/>
<path d="M515.659 245.081C514.011 246.128 510.596 248.038 505.904 248.156C498.587 248.464 493.587 244.403 492.309 243.294C492.797 244.403 495.358 249.82 493.163 255.853C491.027 261.762 485.237 265.823 478.53 266.255C488.041 277.212 485.3 293.092 475.91 299.063C468.291 303.987 456.463 302.262 448.965 293.708C447.566 297.277 444.517 303.494 438.298 309.096C429.396 317.162 419.46 318.821 415.557 319.313C412.445 313.465 411.167 306.2 411.777 298.879C411.353 298.447 406.231 293.277 407.509 285.827C408.363 280.41 412.202 275.979 417.323 274.316C413.299 263.913 414.704 252.464 421.162 244.706C426.772 237.872 434.332 236.208 436.893 235.777C434.698 229.066 436.098 221.74 440.61 216.631C445.61 210.844 453.658 208.873 460.911 211.584C461.457 210.352 465.179 202.599 473.286 200.381C481.515 198.163 490.968 202.599 495.904 211.584C497.797 211.091 505.66 209.119 511.879 213.617C519.684 219.229 522.244 232.768 515.659 245.081Z" fill="#16CB74"/>
<path d="M482.491 378.154H476.73L477.403 351.332V349.479L477.755 319.129L477.862 310.344V308.876L478.213 277.654V276.427L478.706 233.862C478.74 233.375 479.13 232.99 479.623 232.99C480.115 232.99 480.506 233.375 480.506 233.862L480.862 266.8L480.896 268.057L481.286 302.463V304.142L481.462 319.16L481.671 336.453V338.45L482.491 378.154Z" fill="#3A6332"/>
<path d="M479.616 311.94C479.48 311.94 479.338 311.889 479.231 311.781L460.534 292.527C460.33 292.316 460.339 291.988 460.554 291.787C460.759 291.582 461.1 291.587 461.305 291.803L480.002 311.057C480.207 311.267 480.197 311.596 479.982 311.796C479.885 311.894 479.748 311.94 479.616 311.94Z" fill="#3A6332"/>
<path d="M469.05 301.062C469.05 301.062 469.045 301.062 469.035 301.062C454.578 300.718 440.578 279.076 440.486 278.948C440.315 278.712 440.364 278.383 440.603 278.214C440.837 278.049 441.169 278.096 441.344 278.332C441.437 278.455 455.139 299.681 469.065 300.014C469.357 300.02 469.591 300.261 469.582 300.548C469.572 300.836 469.333 301.062 469.05 301.062Z" fill="#3A6332"/>
<path d="M480.447 303.145C480.374 303.109 480.31 303.058 480.257 302.986C480.076 302.75 480.12 302.421 480.349 302.247C490.12 294.884 488.637 278.254 488.617 278.084C488.593 277.792 488.803 277.54 489.09 277.519C489.378 277.504 489.637 277.72 489.666 278.012C489.734 278.721 491.227 295.392 480.993 303.099C480.832 303.222 480.623 303.232 480.447 303.145Z" fill="#3A6332"/>
<path d="M479.089 278.115C478.997 278.115 478.904 278.089 478.816 278.043C453.793 263.261 454.534 236.922 454.549 236.655C454.559 236.373 454.793 236.152 455.076 236.152H455.095C455.388 236.162 455.617 236.408 455.603 236.696C455.598 236.953 454.886 262.686 479.358 277.14C479.611 277.288 479.689 277.612 479.538 277.858C479.445 278.023 479.27 278.115 479.089 278.115Z" fill="#3A6332"/>
<path d="M479.088 269.083C478.908 269.083 478.732 268.99 478.635 268.826C478.483 268.58 478.566 268.256 478.815 268.107C503.282 253.654 502.575 227.92 502.57 227.664C502.555 227.371 502.785 227.13 503.077 227.119H503.097C503.38 227.119 503.614 227.34 503.624 227.623C503.638 227.89 504.38 254.229 479.361 269.011C479.274 269.057 479.181 269.083 479.088 269.083Z" fill="#3A6332"/>
<path d="M73.5972 279.313C80.2193 295.136 71.6515 312.124 58.9581 315.745C48.5091 318.626 35.8157 312.371 30.4124 299.923C28.7716 301.212 25.0092 303.723 19.6001 304.34C13.8922 305.012 9.52038 303.235 7.63336 302.378C-4.26896 321.081 -25.9522 325.56 -38.4639 316.609C-41.6813 314.339 -44.295 311.15 -46.0589 307.473C-49.159 301.644 -50.4307 294.408 -49.8271 287.111C-50.2491 286.679 -55.3534 281.528 -54.0759 274.107C-53.2261 268.71 -49.3993 264.293 -44.295 262.64C-48.3034 252.276 -46.9087 240.865 -40.4682 233.141C-34.8833 226.331 -27.3469 224.678 -24.7977 224.246C-26.9836 217.56 -25.5888 210.262 -21.0939 205.173C-16.1127 199.405 -8.09575 197.444 -0.869972 200.146C-0.324962 198.918 3.37876 191.195 11.4602 188.98C19.6587 186.772 29.0763 191.189 33.9931 200.146C35.8743 199.652 43.7095 197.69 49.9097 202.169C57.6864 207.751 60.2356 221.242 53.6779 233.505C57.3231 232.586 61.0854 233.752 63.3357 236.571C65.885 239.699 65.463 243.499 65.3986 244.115C73.6616 247.243 79.3696 254.787 79.856 263.189C80.3365 272.139 74.6286 278.271 73.5972 279.313Z" fill="#37B45A"/>
<path d="M53.674 233.501C52.0331 234.543 48.6341 236.443 43.9576 236.566C36.6674 236.875 31.6861 232.828 30.4144 231.724C30.9008 232.828 33.45 238.226 31.2641 244.234C29.1368 250.119 23.3703 254.172 16.6836 254.597C26.1598 265.516 23.4289 281.338 14.0699 287.285C6.47496 292.189 -5.30429 290.474 -12.7762 281.949C-14.171 285.508 -17.2125 291.701 -23.4068 297.284C-32.2735 305.316 -42.1774 306.975 -46.0628 307.462C-49.1629 301.633 -50.4346 294.397 -49.831 287.1C-50.253 286.668 -55.3573 281.517 -54.0798 274.096C-53.23 268.699 -49.4032 264.282 -44.2989 262.629C-48.3073 252.265 -46.9126 240.854 -40.4721 233.13C-34.8872 226.32 -27.3508 224.667 -24.8016 224.235C-26.9875 217.549 -25.5927 210.251 -21.0979 205.162C-16.1166 199.394 -8.09966 197.433 -0.873877 200.135C-0.328867 198.907 3.37485 191.184 11.4562 188.969C19.6548 186.761 29.0724 191.178 33.9892 200.135C35.8704 199.641 43.7056 197.679 49.9058 202.158C57.6825 207.747 60.2376 221.237 53.674 233.501Z" fill="#16CB74"/>
<path d="M20.6323 379.494H14.8892L15.5572 339.361V337.51L15.9089 307.278L16.0143 298.524V297.056L16.366 265.948V264.727L16.8582 222.324C16.8934 221.836 17.2802 221.454 17.7724 221.454C18.2647 221.454 18.6515 221.836 18.6515 222.324L19.0031 255.141L19.0383 256.393L19.4251 290.672V292.343L19.6009 307.302L19.8118 324.531V326.517L20.6323 379.494Z" fill="#3A6332"/>
<path d="M17.766 300.116C17.6312 300.116 17.4906 300.061 17.3851 299.956L-1.2449 280.778C-1.45001 280.568 -1.43829 280.235 -1.22732 280.037C-1.02221 279.834 -0.682309 279.84 -0.483058 280.05L18.1469 299.228C18.352 299.438 18.3403 299.771 18.1293 299.968C18.0356 300.067 17.9008 300.116 17.766 300.116Z" fill="#3A6332"/>
<path d="M7.24049 289.272H7.22877C-7.17591 288.926 -21.1235 267.367 -21.2172 267.238C-21.3872 267.003 -21.3403 266.676 -21.1 266.51C-20.8656 266.343 -20.5374 266.392 -20.3616 266.627C-20.2679 266.75 -6.61918 287.896 7.25807 288.229C7.55109 288.236 7.77964 288.476 7.77378 288.766C7.76206 289.05 7.52179 289.272 7.24049 289.272Z" fill="#3A6332"/>
<path d="M18.5981 291.351C18.5277 291.314 18.4574 291.265 18.4105 291.191C18.2289 290.956 18.2699 290.629 18.4984 290.457C28.2324 283.122 26.7498 266.553 26.7381 266.387C26.7088 266.097 26.9197 265.844 27.2069 265.825C27.494 265.807 27.7519 266.023 27.7812 266.319C27.8457 267.022 29.3342 283.634 19.1431 291.308C18.979 291.425 18.768 291.438 18.5981 291.351Z" fill="#3A6332"/>
<path d="M17.2402 266.411C17.1464 266.411 17.0526 266.386 16.9706 266.337C-7.95923 251.606 -7.22083 225.365 -7.20911 225.099C-7.19739 224.816 -6.96297 224.6 -6.68168 224.6C-6.68168 224.6 -6.66996 224.6 -6.65824 224.6C-6.36522 224.612 -6.13667 224.853 -6.15425 225.143C-6.16011 225.402 -6.86335 251.032 17.5156 265.436C17.7676 265.584 17.8438 265.905 17.6973 266.152C17.5976 266.324 17.4218 266.411 17.2402 266.411Z" fill="#3A6332"/>
<path d="M17.2375 257.416C17.0616 257.416 16.8858 257.324 16.7862 257.163C16.6397 256.916 16.7159 256.596 16.9679 256.448C41.3468 242.044 40.6377 216.407 40.6319 216.154C40.6201 215.864 40.8428 215.624 41.1358 215.611H41.1534C41.4347 215.611 41.6691 215.834 41.6809 216.111C41.6926 216.376 42.431 242.618 17.507 257.348C17.425 257.391 17.3312 257.416 17.2375 257.416Z" fill="#3A6332"/>
<path d="M355.091 294.771C360.603 307.941 353.472 322.081 342.907 325.095C334.21 327.493 323.644 322.286 319.147 311.925C317.781 312.998 314.65 315.088 310.147 315.601C305.396 316.161 301.758 314.682 300.187 313.969C290.28 329.536 272.232 333.264 261.818 325.814C259.14 323.924 256.965 321.27 255.497 318.21C252.916 313.358 251.858 307.335 252.36 301.261C252.009 300.902 247.761 296.614 248.824 290.438C249.531 285.945 252.716 282.269 256.965 280.893C253.629 272.267 254.789 262.769 260.15 256.34C264.799 250.672 271.072 249.296 273.193 248.937C271.374 243.371 272.535 237.297 276.276 233.061C280.422 228.26 287.095 226.628 293.109 228.876C293.563 227.855 296.646 221.426 303.372 219.583C310.196 217.745 318.035 221.421 322.127 228.876C323.693 228.466 330.215 226.833 335.375 230.561C341.848 235.207 343.97 246.436 338.512 256.643C341.546 255.878 344.677 256.849 346.55 259.195C348.672 261.798 348.321 264.961 348.267 265.474C355.145 268.078 359.896 274.357 360.301 281.35C360.701 288.8 355.95 293.903 355.091 294.771Z" fill="#37B45A"/>
<path d="M338.509 256.639C337.143 257.506 334.314 259.088 330.421 259.19C324.353 259.447 320.207 256.079 319.149 255.16C319.554 256.079 321.675 260.572 319.856 265.572C318.085 270.471 313.286 273.844 307.72 274.198C315.607 283.286 313.334 296.456 305.545 301.405C299.223 305.487 289.419 304.06 283.199 296.964C282.038 299.927 279.507 305.082 274.351 309.728C266.971 316.413 258.728 317.794 255.494 318.2C252.913 313.348 251.855 307.325 252.357 301.251C252.006 300.892 247.757 296.605 248.821 290.428C249.528 285.935 252.713 282.259 256.962 280.883C253.625 272.257 254.786 262.759 260.147 256.331C264.795 250.662 271.068 249.286 273.19 248.927C271.371 243.361 272.532 237.287 276.273 233.051C280.419 228.251 287.092 226.618 293.106 228.867C293.56 227.845 296.643 221.417 303.369 219.573C310.193 217.735 318.032 221.412 322.124 228.867C323.69 228.456 330.212 226.823 335.372 230.551C341.845 235.203 343.972 246.431 338.509 256.639Z" fill="#16CB74"/>
<path d="M311.007 378.154H306.227L306.783 344.75V343.21L307.075 318.046L307.163 310.76V309.538L307.456 283.646V282.629L307.865 247.335C307.895 246.93 308.217 246.611 308.626 246.611C309.036 246.611 309.358 246.93 309.358 247.335L309.651 274.65L309.68 275.692L310.002 304.224V305.616L310.148 318.066L310.324 332.407V334.06L311.007 378.154Z" fill="#3A6332"/>
<path d="M308.62 312.085C308.508 312.085 308.391 312.038 308.303 311.951L292.797 295.988C292.626 295.814 292.636 295.537 292.811 295.372C292.982 295.203 293.265 295.208 293.431 295.382L308.937 311.345C309.108 311.52 309.098 311.797 308.923 311.961C308.845 312.044 308.733 312.085 308.62 312.085Z" fill="#3A6332"/>
<path d="M299.86 303.059H299.85C287.86 302.771 276.251 284.827 276.173 284.719C276.032 284.524 276.071 284.252 276.271 284.113C276.466 283.974 276.739 284.015 276.885 284.211C276.963 284.313 288.324 301.914 299.874 302.191C300.118 302.196 300.308 302.397 300.303 302.638C300.294 302.874 300.094 303.059 299.86 303.059Z" fill="#3A6332"/>
<path d="M309.313 304.789C309.254 304.758 309.196 304.717 309.157 304.655C309.005 304.46 309.04 304.188 309.23 304.044C317.332 297.94 316.098 284.149 316.088 284.01C316.064 283.769 316.239 283.558 316.478 283.543C316.717 283.527 316.932 283.707 316.956 283.954C317.01 284.539 318.249 298.366 309.766 304.753C309.63 304.85 309.454 304.861 309.313 304.789Z" fill="#3A6332"/>
<path d="M308.183 284.031C308.105 284.031 308.027 284.01 307.958 283.969C287.208 271.708 287.823 249.867 287.833 249.646C287.842 249.41 288.038 249.23 288.272 249.23C288.272 249.23 288.281 249.23 288.291 249.23C288.535 249.24 288.725 249.44 288.711 249.682C288.706 249.897 288.12 271.231 308.412 283.22C308.622 283.343 308.685 283.61 308.563 283.815C308.48 283.959 308.334 284.031 308.183 284.031Z" fill="#3A6332"/>
<path d="M308.181 276.544C308.035 276.544 307.888 276.467 307.805 276.334C307.683 276.128 307.747 275.861 307.956 275.738C328.248 263.749 327.658 242.411 327.653 242.2C327.643 241.959 327.829 241.759 328.072 241.748H328.087C328.321 241.748 328.516 241.933 328.526 242.164C328.536 242.385 329.15 264.227 308.405 276.488C308.337 276.524 308.259 276.544 308.181 276.544Z" fill="#3A6332"/>
<path d="M988.897 330.853C985.463 359.389 976.696 386.376 962.538 411.877H901.79C893.761 397.393 882.48 373.996 874.451 359.512C884.689 371.084 894.986 382.724 905.224 394.297C898.666 381.361 892.103 368.364 885.545 355.361C895.478 368.666 905.347 381.978 915.274 395.284L883.335 325.776C893.146 334.504 907.855 357.217 925.266 387.487C924.164 367.741 921.463 348.618 913.803 331.778C925.694 339.637 932.193 362.973 938.077 388.104C943.591 364.953 949.909 339.328 947.453 312.772C951.807 342.98 955.605 359.568 951.561 385.254C956.22 375.846 959.713 363.343 962.292 348.735C964.683 365.631 961.002 384.014 954.503 403.081C967.197 382.848 978.536 358.272 988.897 330.853Z" fill="#36937A"/>
<path d="M1010.17 367.933C1005.64 385.452 998.282 400.615 986.204 411.879H963.524C977.132 395.661 988.29 378.765 993.869 360.506C993.131 377.587 987.985 392.133 977.501 405.938C989.943 397.456 1000.67 384.274 1010.17 367.933Z" fill="#36937A"/>
<path d="M1018.87 384.952C1014.58 395.29 1007.84 404.142 999.5 411.878H987.732C999.259 404.759 1009.68 395.846 1018.87 384.952Z" fill="#36937A"/>
<path d="M113.871 383.075C111.495 402.818 105.429 421.49 95.6332 439.134H53.6036C48.0488 429.113 40.2437 412.925 34.689 402.904C41.7723 410.91 48.8962 418.964 55.9795 426.97C51.4425 418.021 46.9014 409.028 42.3643 400.031C49.2368 409.237 56.0647 418.447 62.9331 427.653L40.8357 379.563C47.6231 385.602 57.8 401.316 69.8462 422.259C69.0839 408.597 67.2147 395.367 61.9154 383.715C70.1421 389.153 74.6387 405.298 78.7095 422.685C82.5248 406.668 86.8956 388.939 85.1967 370.566C88.2093 391.466 90.8367 402.942 88.039 420.714C91.2624 414.205 93.6789 405.554 95.4629 395.448C97.1172 407.137 94.5709 419.856 90.0744 433.048C98.8566 419.049 106.702 402.046 113.871 383.075Z" fill="#36937A"/>
<path d="M128.59 408.729C125.452 420.85 120.363 431.34 112.007 439.134H96.3157C105.73 427.913 113.45 416.224 117.31 403.591C116.799 415.409 113.239 425.472 105.986 435.024C114.594 429.155 122.014 420.035 128.59 408.729Z" fill="#36937A"/>
<path d="M134.61 420.505C131.642 427.658 126.976 433.782 121.206 439.134H113.064C121.04 434.209 128.249 428.042 134.61 420.505Z" fill="#36937A"/>
</g>
<defs>
<linearGradient id="paint0_linear_2967_10742" x1="787.623" y1="388.962" x2="760.085" y2="496.586" gradientUnits="userSpaceOnUse">
<stop stop-color="#F7A47A"/>
<stop offset="1" stop-color="#F26721"/>
</linearGradient>
<linearGradient id="paint1_linear_2967_10742" x1="111.242" y1="548.851" x2="-7.37064" y2="685.623" gradientUnits="userSpaceOnUse">
<stop stop-color="#1F8297"/>
<stop offset="0.448113" stop-color="#166C7D"/>
<stop offset="1" stop-color="#003940"/>
</linearGradient>
<linearGradient id="paint2_linear_2967_10742" x1="711.266" y1="547.358" x2="639.1" y2="768.85" gradientUnits="userSpaceOnUse">
<stop stop-color="#1F8297"/>
<stop offset="0.448113" stop-color="#166C7D"/>
<stop offset="1" stop-color="#003940"/>
</linearGradient>
<linearGradient id="paint3_linear_2967_10742" x1="1144.02" y1="584.703" x2="1102.45" y2="676.546" gradientUnits="userSpaceOnUse">
<stop stop-color="#1F8297"/>
<stop offset="0.448113" stop-color="#166C7D"/>
<stop offset="1" stop-color="#003940"/>
</linearGradient>
<linearGradient id="paint4_linear_2967_10742" x1="491.436" y1="314.365" x2="434.754" y2="531.854" gradientUnits="userSpaceOnUse">
<stop stop-color="#1F8297"/>
<stop offset="0.448113" stop-color="#166C7D"/>
<stop offset="1" stop-color="#003940"/>
</linearGradient>
<linearGradient id="paint5_linear_2967_10742" x1="1563.64" y1="301.75" x2="1507.29" y2="563.942" gradientUnits="userSpaceOnUse">
<stop stop-color="#1F8297"/>
<stop offset="0.448113" stop-color="#166C7D"/>
<stop offset="1" stop-color="#003940"/>
</linearGradient>
<linearGradient id="paint6_linear_2967_10742" x1="658.915" y1="353.612" x2="634.404" y2="437.524" gradientUnits="userSpaceOnUse">
<stop stop-color="#1F8297"/>
<stop offset="0.448113" stop-color="#166C7D"/>
<stop offset="1" stop-color="#003940"/>
</linearGradient>
<linearGradient id="paint7_linear_2967_10742" x1="256.008" y1="397.164" x2="195.561" y2="508.171" gradientUnits="userSpaceOnUse">
<stop stop-color="#1F8297"/>
<stop offset="0.448113" stop-color="#166C7D"/>
<stop offset="1" stop-color="#003940"/>
</linearGradient>
<clipPath id="clip0_2967_10742">
<rect width="1085.48" height="659.665" fill="white" transform="translate(-31.1125 -44.6648)"/>
</clipPath>
</defs>
</svg>
